<svg width="302.183" height="202.355" viewBox="0 0 350 234.375" class="svg_stacked-film"><defs><linearGradient id="a"><stop stop-color="#7d141d" offset="0"/><stop stop-color="#ff1e27" offset="1"/></linearGradient><linearGradient id="b"><stop stop-color="#945f50" offset="0"/><stop stop-color="#fcc5b3" offset=".5"/><stop stop-color="#945f50" offset="1"/></linearGradient><linearGradient id="c"><stop stop-color="#945f50" offset="0"/><stop stop-color="#fcc5b3" offset=".5"/><stop stop-color="#945f50" offset="1"/></linearGradient></defs><g transform="translate(107.328 111.328) scale(1.36719)" fill="url(#a)"><path xmlns="http://www.w3.org/2000/svg" d="M50 18.313c-17.473 0-31.688 14.214-31.688 31.687S32.528 81.688 50 81.688 81.688 67.472 81.688 50 67.472 18.312 50 18.312zm0 61.374C33.63 79.688 20.312 66.37 20.312 50S33.63 20.312 50 20.312 79.688 33.63 79.688 50 66.37 79.688 50 79.688z"/><path xmlns="http://www.w3.org/2000/svg" d="M50 24.164c-3.727 0-6.759 3.032-6.759 6.759S46.273 37.68 50 37.68s6.759-3.032 6.759-6.758-3.032-6.759-6.759-6.759zm0 11.517a4.764 4.764 0 0 1-4.759-4.758c0-2.624 2.135-4.759 4.759-4.759s4.759 2.135 4.759 4.759A4.764 4.764 0 0 1 50 35.68zm-13.276-1.124a6.714 6.714 0 0 0-5.13-.675c-1.742.467-3.2 1.585-4.103 3.148s-1.142 3.385-.675 5.13a6.712 6.712 0 0 0 3.149 4.103 6.725 6.725 0 0 0 5.128.674 6.711 6.711 0 0 0 4.104-3.148c1.863-3.227.753-7.37-2.473-9.232zm.74 8.232a4.725 4.725 0 0 1-2.888 2.217 4.733 4.733 0 0 1-3.611-.476 4.724 4.724 0 0 1-2.217-2.89c-.33-1.227-.16-2.51.476-3.61s1.66-1.887 2.888-2.217a4.726 4.726 0 0 1 3.611.476 4.764 4.764 0 0 1 1.742 6.5zM34.981 53.05a6.708 6.708 0 0 0-5.128.675 6.712 6.712 0 0 0-3.149 4.103 6.714 6.714 0 0 0 .675 5.129 6.76 6.76 0 0 0 9.232 2.474 6.711 6.711 0 0 0 3.149-4.105c.467-1.743.227-3.564-.675-5.128s-2.36-2.681-4.104-3.148zm2.847 7.76a4.725 4.725 0 0 1-2.217 2.888 4.763 4.763 0 0 1-6.5-1.741c-.635-1.1-.804-2.384-.475-3.611s1.116-2.253 2.217-2.889a4.725 4.725 0 0 1 3.61-.476 4.724 4.724 0 0 1 2.89 2.217c.635 1.1.804 2.383.475 3.612zm11.947 1.69c-3.726 0-6.757 3.032-6.757 6.759s3.03 6.758 6.757 6.758 6.76-3.032 6.76-6.758-3.033-6.759-6.76-6.759zm0 11.517a4.764 4.764 0 0 1-4.757-4.758 4.764 4.764 0 0 1 4.757-4.759 4.764 4.764 0 0 1 4.76 4.759 4.764 4.764 0 0 1-4.76 4.758zM69.81 53.919a6.712 6.712 0 0 0-5.127-.675c-1.744.467-3.202 1.585-4.104 3.149s-1.142 3.384-.676 5.128a6.716 6.716 0 0 0 3.15 4.104 6.725 6.725 0 0 0 5.128.675 6.711 6.711 0 0 0 4.104-3.149 6.767 6.767 0 0 0-2.474-9.232zm.743 8.232a4.725 4.725 0 0 1-2.889 2.217 4.733 4.733 0 0 1-3.611-.475 4.726 4.726 0 0 1-2.218-2.89c-.328-1.228-.16-2.51.477-3.61s1.66-1.888 2.888-2.217a4.725 4.725 0 0 1 3.61.476c1.102.634 1.89 1.66 2.218 2.888s.16 2.51-.475 3.611zm-7.388-27.4a6.717 6.717 0 0 0-3.15 4.103 6.716 6.716 0 0 0 .675 5.128 6.764 6.764 0 0 0 9.233 2.475 6.717 6.717 0 0 0 3.15-4.103 6.718 6.718 0 0 0-.676-5.13 6.715 6.715 0 0 0-4.104-3.149 6.707 6.707 0 0 0-5.128.676zm7.5 3.474c.636 1.1.805 2.382.476 3.61a4.726 4.726 0 0 1-2.218 2.89 4.763 4.763 0 0 1-6.5-1.743c-.636-1.1-.805-2.382-.476-3.61s1.117-2.254 2.218-2.889a4.727 4.727 0 0 1 3.61-.476 4.731 4.731 0 0 1 2.89 2.218z"/><path xmlns="http://www.w3.org/2000/svg" d="M50 10c-22.056 0-40 17.944-40 40 0 17.703 11.565 32.748 27.533 38H11a1 1 0 1 0 0 2h38.033c.039 0 .071-.018.108-.022.287.006.571.022.859.022 22.056 0 40-17.944 40-40S72.056 10 50 10zm0 78c-20.953 0-38-17.047-38-38s17.047-38 38-38 38 17.047 38 38-17.047 38-38 38z"/><path xmlns="http://www.w3.org/2000/svg" d="M49.888 55.94a5.856 5.856 0 0 0 5.85-5.85c0-3.225-2.625-5.849-5.85-5.849s-5.85 2.624-5.85 5.85a5.856 5.856 0 0 0 5.85 5.848zm0-9.699a3.854 3.854 0 0 1 3.85 3.85c0 2.122-1.727 3.848-3.85 3.848s-3.85-1.726-3.85-3.848a3.854 3.854 0 0 1 3.85-3.85z"/></g><path d="m2.82 5.98 5.8 10.9 2.42-4.48L12.2 20h.72l-1.5-9.84-2.8 5.18-4.98-9.36h-.82zm6.38 5.38-.94 1.74.42.76 1.32-2.5 1.76-3.28.06-.14.66-1.22h.48l.06.48 1.5 9.76.34 2.3h-.66l-1.52-9.9-.18-1.2-.56 1.06 1.6 10.48h-.02l.06.3h2.12L13.58 5.98h-1.54zm-1.22 5.7L2.24 6.24l-.12-.2L0 20h3.5l.64-4.14-.42-.78-.16-.3-.68 4.48H.84L2.52 8.3l6.12 11.52 2.18-4.14-.16-1.06-.02-.14-2 3.8zm-4.74-4.44L7.16 20h.82l-5.12-9.62-1.3 8.36h.72zM25.63 20c-1.94 0-3.42-.5-4.4-1.5-.96-.96-1.46-2.38-1.46-4.06V6.02h3.4v8.42c0 1.52.74 2.16 2.36 2.16 1.58 0 2.44-.78 2.44-2.16V6.02h2.06v8.42c0 1.06-.28 2.06-.82 2.78-.72.98-1.86 1.44-3.62 1.44-1.02 0-1.84-.14-2.46-.44-1.26-.58-2.02-1.88-2.02-3.78V7.3h.72v7.14c0 2.26 1.3 3.5 3.76 3.5s3.72-1.24 3.72-3.5v-7.7h-.62v7.7c0 1.76-1.18 2.88-3.16 2.88-2 0-3.06-1.02-3.06-2.88v-7.7h-1.98v7.7c0 3.18 1.76 4.84 5.14 4.84 1.76 0 2.96-.42 3.78-1.28s1.26-2.1 1.26-3.56V6.02h.72v8.42c0 1.68-.52 3.08-1.48 4.06-.96 1-2.38 1.5-4.28 1.5zm10.89-3.3c.98.44 1.84.66 2.56.66.36 0 .58-.02.68-.08.46-.12.78-.38.98-.78l.02-.04c.1-.18.14-.4.14-.68 0-.14-.04-.3-.12-.5l-.04-.08c-.26-.54-.84-.9-1.9-1.24l-.2-.06-.06-.02c-1.62-.48-2.66-1.24-3.16-2.3-.2-.4-.3-.84-.3-1.32 0-.5.1-.98.3-1.48l.04-.08c.46-.92 1.2-1.52 2.18-1.82.7-.1 1.1-.16 1.2-.16 1.36 0 2.94.56 4.72 1.66l.38-.62C42 6.58 40.32 6 38.86 6c-.58 0-1.06.06-1.4.2-1.18.32-2.06 1.04-2.64 2.18l-.06.14a4.52 4.52 0 0 0-.36 1.74c0 .62.12 1.16.36 1.64.62 1.24 1.82 2.12 3.62 2.66l.24.08c.82.26 1.3.54 1.48.86l.02.04c.04.06.06.14.06.24 0 .18-.02.3-.08.4-.14.32-.48.48-1.02.48-.86 0-2.1-.44-3.06-1.06l-.3-.18-1.76 2.84.3.18c1.42.96 3.3 1.56 4.82 1.56.5 0 .96-.06 1.38-.18 1.18-.34 2.06-1.08 2.64-2.2l.08-.14c.24-.62.36-1.2.36-1.74 0-.48-.16-1.08-.46-1.82-.54-1.08-1.68-1.9-3.46-2.46l-.28-.08c-.56-.18-.94-.36-1.12-.5-.24-.2-.38-.34-.44-.42l-.04-.22c0-.2.04-.38.14-.52.16-.3.32-.38.96-.38.86 0 2.1.44 3.06 1.06l.3.18 1.08-1.72-.32-.18c-1.22-.8-2.88-1.36-4.1-1.36-.54 0-.88.04-1.06.14-.82.24-1.44.76-1.84 1.54-.18.34-.26.74-.26 1.24 0 .38.08.74.24 1.08.42.9 1.36 1.56 2.82 2l.26.08.54.2c.3.12.62.28.98.48.64.38.96.92.96 1.64 0 .4-.1.78-.28 1.12-.42.74-1.14 1.12-2.14 1.12-.68 0-1.64-.26-2.88-.76l-.34.58-.02.04c1.14.58 2.22.86 3.26.86.58 0 1.12-.12 1.6-.36.94-.46 1.52-1.42 1.52-2.62 0-1.9-1.46-2.46-3-3l-.26-.08c-1.26-.38-2.04-.9-2.36-1.6-.12-.24-.18-.5-.18-.8 0-.38.06-.68.2-.94.32-.58.78-.96 1.38-1.14l.8-.1c1.06 0 2.22.36 3.48 1.06l-.32.5c-1.3-.64-2.34-.96-3.1-.96-.38 0-.6.02-.7.08-.44.12-.76.38-.98.8l-.02.04c-.1.18-.14.42-.14.72 0 .22.04.38.1.48.26.54.94.98 2.02 1.3l.26.08.5.16c.06.02.38.16.96.44.78.44 1.34 1 1.66 1.66.2.4.3.84.3 1.32 0 .58-.1 1.08-.32 1.5l-.04.08c-.46.92-1.2 1.52-2.18 1.82-.7.1-1.1.16-1.2.16-1.02 0-2.34-.38-3.56-.96l-.56-.3 1-1.62zM46.95 6.04h.72v13.24h7.66v-2h-5.64v-1.92h.72v1.2h5.64V20h-9.1V6.04zm1.36 0h7.64v3.42h-4.8v-.72h4.08V6.76h-6.2v5.78h4.66v.72h-5.38V6.04zm0 7.86h6.08v-2h-4.7V7.36h4.84v.72h-4.12v3.1h4.7v3.44h-6.08v3.32h5.6v.72h-6.32V13.9zM66.14 20c-1.94 0-3.42-.5-4.4-1.5-.96-.96-1.46-2.38-1.46-4.06V6.02h3.4v8.42c0 1.52.74 2.16 2.36 2.16 1.58 0 2.44-.78 2.44-2.16V6.02h2.06v8.42c0 1.06-.28 2.06-.82 2.78-.72.98-1.86 1.44-3.62 1.44-1.02 0-1.84-.14-2.46-.44-1.26-.58-2.02-1.88-2.02-3.78V7.3h.72v7.14c0 2.26 1.3 3.5 3.76 3.5s3.72-1.24 3.72-3.5v-7.7h-.62v7.7c0 1.76-1.18 2.88-3.16 2.88-2 0-3.06-1.02-3.06-2.88v-7.7H61v7.7c0 3.18 1.76 4.84 5.14 4.84 1.76 0 2.96-.42 3.78-1.28s1.26-2.1 1.26-3.56V6.02h.72v8.42c0 1.68-.52 3.08-1.48 4.06-.96 1-2.38 1.5-4.28 1.5zM77.29 5.98l5.8 10.9 2.42-4.48 1.16 7.6h.72l-1.5-9.84-2.8 5.18-4.98-9.36h-.82zm6.38 5.38-.94 1.74.42.76 1.32-2.5 1.76-3.28.06-.14.66-1.22h.48l.06.48 1.5 9.76.34 2.3h-.66l-1.52-9.9-.18-1.2-.56 1.06 1.6 10.48h-.02l.06.3h2.12L88.05 5.98h-1.54zm-1.22 5.7L76.71 6.24l-.12-.2L74.47 20h3.5l.64-4.14-.42-.78-.16-.3-.68 4.48h-2.04L76.99 8.3l6.12 11.52 2.18-4.14-.16-1.06-.02-.14-2 3.8zm-4.74-4.44L81.63 20h.82l-5.12-9.62-1.3 8.36h.72zM109.55 20c-1.22 0-2.38-.32-3.48-.96-2.2-1.26-3.56-3.58-3.56-6.06 0-1.24.32-2.4.96-3.5 1.26-2.16 3.62-3.52 6.08-3.52 1.22 0 2.4.32 3.5.94 2.2 1.28 3.52 3.66 3.52 6.08 0 1.22-.32 2.36-.94 3.46-1.28 2.2-3.6 3.56-6.08 3.56zm0-13.34c-1.14 0-2.2.28-3.16.84-1.94 1.12-3.14 3.18-3.14 5.48 0 1.14.28 2.2.84 3.16a6.25 6.25 0 0 0 5.46 3.14c1.14 0 2.2-.28 3.18-.84a6.25 6.25 0 0 0 3.14-5.46c0-1.14-.28-2.2-.84-3.18-1.12-1.94-3.24-3.14-5.48-3.14zm0 11.98c-1 0-1.94-.26-2.84-.76-1.78-1.02-2.88-2.88-2.88-4.9 0-1.02.26-1.96.76-2.84 1.02-1.76 2.82-2.8 4.96-2.8 1.08 0 2.06.24 2.92.72 1.72.96 2.72 2.76 2.72 4.92 0 1.02-.24 1.96-.72 2.82-.98 1.74-2.9 2.84-4.92 2.84zm0-10.6c-.9 0-1.72.22-2.48.66a4.86 4.86 0 0 0-2.48 4.28c0 .88.22 1.7.68 2.46.88 1.54 2.44 2.5 4.28 2.5.9 0 1.72-.22 2.48-.68 1.5-.88 2.46-2.52 2.46-4.28 0-.9-.22-1.74-.66-2.5-.88-1.52-2.54-2.44-4.28-2.44zm0 9.3c-.78 0-1.52-.2-2.18-.58-1.34-.78-2.2-2.26-2.2-3.78 0-.78.2-1.52.6-2.2.78-1.36 2.16-2.14 3.78-2.14.78 0 1.5.2 2.16.58 1.34.78 2.12 2.14 2.12 3.76 0 .8-.18 1.52-.54 2.18a4.288 4.288 0 0 1-3.74 2.18zm0-7.98c-.64 0-1.24.16-1.8.48-1.12.66-1.84 1.84-1.84 3.14 0 .64.16 1.24.48 1.78.64 1.12 1.8 1.8 3.16 1.8.66 0 1.28-.16 1.82-.48 1.1-.64 1.76-1.82 1.76-3.1 0-.66-.16-1.26-.48-1.82a3.562 3.562 0 0 0-3.1-1.8zM117.84 6h.72v13.28h1.96v-5h4.68v-.66h-4.66v-.72h5.38V15h-4.68v5h-3.4V6zm1.34 0h7.72v3.4h-5v-.72h4.28V6.72h-6.3v12h-.7V6zm1.34 1.3h5.04v.72h-4.32v3.54h4.68v.74h-5.4v-5z" transform="translate(0 -16.438) scale(2.75808)" fill="url(#b)"/><path d="M10.42 8.02c-1.2-1.26-2.74-2-4.24-2H.32v.72l5.86.02c.94 0 1.84.3 2.7.88 1.68 1.18 2.8 3.3 2.8 5.36 0 1.08-.24 2.08-.74 3.02-1 1.86-3.02 3.22-4.76 3.22H1.04V8.02l4.98.02c.72 0 1.42.22 2.08.68 1.34.9 2.22 2.62 2.22 4.28 0 1.22-.52 2.48-1.46 3.46-.88.88-1.94 1.44-2.82 1.44H3.76l.02-7.9h-.7l-.02 8.26v.36h2.98c1.1 0 2.38-.62 3.36-1.66 1.06-1.14 1.64-2.54 1.64-3.96 0-1.44-.56-2.88-1.58-4-1.1-1.1-2.3-1.7-3.44-1.7H.32v12.68h5.86c1.44 0 3-.74 4.18-2 1.3-1.34 2.02-3.12 2.02-4.98s-.68-3.62-1.96-4.98zm-4.46 9.24c.56 0 1.14-.22 1.76-.64 1.22-.86 2-2.3 2-3.64 0-.72-.18-1.42-.52-2.1C8.5 9.54 7.24 8.7 5.96 8.7l-4.3.02.02 9.94h.72V9.42l3.56-.02c.46 0 .94.18 1.44.52 1.02.72 1.6 1.84 1.6 3.06 0 .82-.38 1.74-1 2.44s-1.38 1.12-2.04 1.12H4.54v.72h1.42zm20.75 2.02h-2.3l-2.76-5.14-1.86.02v5.12h-2.02V6h-.72v14h3.48v-5.14h.7L23.97 20h3.94l-2.76-5.16-.66.26zM21.95 6.72c2.9 0 4.54 1.3 4.54 3.68 0 2.16-1.3 3.48-3.56 3.72l-.54.06 2.5 4.62h.82l-2.18-4.06c2.4-.42 3.68-1.88 3.68-4.34 0-.82-.18-1.56-.52-2.22C25.89 6.76 24.25 6 21.95 6h-3.54v12.78h.72V6.72h2.82zm-.16 6.8c2.74 0 4.04-.94 4.04-3.02 0-1.98-1.36-3.1-3.54-3.1h-2.52v2.1h2.3c1.06 0 1.6.3 1.6.9 0 .7-.66 1.04-2 1.04h-1.16V10.2h-.74v1.96h1.9c1.78 0 2.72-.62 2.72-1.76 0-.36-.08-.64-.26-.86-.34-.5-1.02-.74-2.06-.74h-1.56v-.68h1.78c1.78 0 2.82.86 2.82 2.38 0 1.58-1.06 2.32-3.32 2.32h-2v.7h2zm8.59-7.48h.72v13.24h7.66v-2h-5.64v-1.92h.72v1.2h5.64V20h-9.1V6.04zm1.36 0h7.64v3.42h-4.8v-.72h4.08V6.76h-6.2v5.78h4.66v.72h-5.38V6.04zm0 7.86h6.08v-2h-4.7V7.36h4.84v.72h-4.12v3.1h4.7v3.44h-6.08v3.32h5.6v.72h-6.32V13.9zm12.65 4.86h.88l.7-1.68 5.22.02 1.28 2.9 3.68-.02L49.85 6h-1.28l-6.26 13.98h3.9l.68-1.6h3.98l-.3-.68h-4.12l-.64 1.58h-2.38l5.54-12.6h.48l5.56 12.6h-2.12l-1.28-2.86h-6.2zm2.38-3.52 2.44-5.82 4.1 9.32h.82L49.21 7.78l-3.6 8.08h5.8L49.21 11l-1.52 3.66h.78l.74-1.82 1.1 2.4h-3.54zm15.07-9.26 5.8 10.9 2.42-4.48 1.16 7.6h.72l-1.5-9.84-2.8 5.18-4.98-9.36h-.82zm6.38 5.38-.94 1.74.42.76 1.32-2.5 1.76-3.28.06-.14.66-1.22h.48l.06.48 1.5 9.76.34 2.3h-.66l-1.52-9.9-.18-1.2-.56 1.06 1.6 10.48h-.02l.06.3h2.12L72.6 5.98h-1.54zM67 17.06 61.26 6.24l-.12-.2L59.02 20h3.5l.64-4.14-.42-.78-.16-.3-.68 4.48h-2.04L61.54 8.3l6.12 11.52 2.18-4.14-.16-1.06-.02-.14-2 3.8zm-4.74-4.44L66.18 20H67l-5.12-9.62-1.3 8.36h.72zm17.69 4.08c.98.44 1.84.66 2.56.66.36 0 .58-.02.68-.08.46-.12.78-.38.98-.78l.02-.04c.1-.18.14-.4.14-.68 0-.14-.04-.3-.12-.5l-.04-.08c-.26-.54-.84-.9-1.9-1.24l-.2-.06-.06-.02c-1.62-.48-2.66-1.24-3.16-2.3-.2-.4-.3-.84-.3-1.32 0-.5.1-.98.3-1.48l.04-.08c.46-.92 1.2-1.52 2.18-1.82.7-.1 1.1-.16 1.2-.16 1.36 0 2.94.56 4.72 1.66l.38-.62C85.43 6.58 83.75 6 82.29 6c-.58 0-1.06.06-1.4.2-1.18.32-2.06 1.04-2.64 2.18l-.06.14a4.52 4.52 0 0 0-.36 1.74c0 .62.12 1.16.36 1.64.62 1.24 1.82 2.12 3.62 2.66l.24.08c.82.26 1.3.54 1.48.86l.02.04c.04.06.06.14.06.24 0 .18-.02.3-.08.4-.14.32-.48.48-1.02.48-.86 0-2.1-.44-3.06-1.06l-.3-.18-1.76 2.84.3.18c1.42.96 3.3 1.56 4.82 1.56.5 0 .96-.06 1.38-.18 1.18-.34 2.06-1.08 2.64-2.2l.08-.14c.24-.62.36-1.2.36-1.74 0-.48-.16-1.08-.46-1.82-.54-1.08-1.68-1.9-3.46-2.46l-.28-.08c-.56-.18-.94-.36-1.12-.5-.24-.2-.38-.34-.44-.42l-.04-.22c0-.2.04-.38.14-.52.16-.3.32-.38.96-.38.86 0 2.1.44 3.06 1.06l.3.18 1.08-1.72-.32-.18c-1.22-.8-2.88-1.36-4.1-1.36-.54 0-.88.04-1.06.14-.82.24-1.44.76-1.84 1.54-.18.34-.26.74-.26 1.24 0 .38.08.74.24 1.08.42.9 1.36 1.56 2.82 2l.26.08.54.2c.3.12.62.28.98.48.64.38.96.92.96 1.64 0 .4-.1.78-.28 1.12-.42.74-1.14 1.12-2.14 1.12-.68 0-1.64-.26-2.88-.76l-.34.58-.02.04c1.14.58 2.22.86 3.26.86.58 0 1.12-.12 1.6-.36.94-.46 1.52-1.42 1.52-2.62 0-1.9-1.46-2.46-3-3l-.26-.08c-1.26-.38-2.04-.9-2.36-1.6-.12-.24-.18-.5-.18-.8 0-.38.06-.68.2-.94.32-.58.78-.96 1.38-1.14l.8-.1c1.06 0 2.22.36 3.48 1.06l-.32.5c-1.3-.64-2.34-.96-3.1-.96-.38 0-.6.02-.7.08-.44.12-.76.38-.98.8l-.02.04c-.1.18-.14.42-.14.72 0 .22.04.38.1.48.26.54.94.98 2.02 1.3l.26.08.5.16c.06.02.38.16.96.44.78.44 1.34 1 1.66 1.66.2.4.3.84.3 1.32 0 .58-.1 1.08-.32 1.5l-.04.08c-.46.92-1.2 1.52-2.18 1.82-.7.1-1.1.16-1.2.16-1.02 0-2.34-.38-3.56-.96l-.56-.3 1-1.62z" transform="translate(-1.287 24.956) scale(4.02068)" fill="url(#c)"/></svg>