<?xml version="1.0" encoding="utf-8"?>
<svg viewBox="63.464 31.325 214.604 203.254" xmlns="http://www.w3.org/2000/svg">
  <defs>
    <linearGradient id="a">
      <stop stop-color="#7d141d" offset="0"/>
      <stop stop-color="#ff1e27" offset="1"/>
    </linearGradient>
  </defs>
  <g transform="matrix(2.152585983276367, 0, 0, 2.164599895477295, 60.38530731201172, 22.273807525634766)" fill="url(#a)" style="">
    <path xmlns="http://www.w3.org/2000/svg" d="M50 18.313c-17.473 0-31.688 14.214-31.688 31.687S32.528 81.688 50 81.688 81.688 67.472 81.688 50 67.472 18.312 50 18.312zm0 61.374C33.63 79.688 20.312 66.37 20.312 50S33.63 20.312 50 20.312 79.688 33.63 79.688 50 66.37 79.688 50 79.688z"/>
    <path xmlns="http://www.w3.org/2000/svg" d="M50 24.164c-3.727 0-6.759 3.032-6.759 6.759S46.273 37.68 50 37.68s6.759-3.032 6.759-6.758-3.032-6.759-6.759-6.759zm0 11.517a4.764 4.764 0 0 1-4.759-4.758c0-2.624 2.135-4.759 4.759-4.759s4.759 2.135 4.759 4.759A4.764 4.764 0 0 1 50 35.68zm-13.276-1.124a6.714 6.714 0 0 0-5.13-.675c-1.742.467-3.2 1.585-4.103 3.148s-1.142 3.385-.675 5.13a6.712 6.712 0 0 0 3.149 4.103 6.725 6.725 0 0 0 5.128.674 6.711 6.711 0 0 0 4.104-3.148c1.863-3.227.753-7.37-2.473-9.232zm.74 8.232a4.725 4.725 0 0 1-2.888 2.217 4.733 4.733 0 0 1-3.611-.476 4.724 4.724 0 0 1-2.217-2.89c-.33-1.227-.16-2.51.476-3.61s1.66-1.887 2.888-2.217a4.726 4.726 0 0 1 3.611.476 4.764 4.764 0 0 1 1.742 6.5zM34.981 53.05a6.708 6.708 0 0 0-5.128.675 6.712 6.712 0 0 0-3.149 4.103 6.714 6.714 0 0 0 .675 5.129 6.76 6.76 0 0 0 9.232 2.474 6.711 6.711 0 0 0 3.149-4.105c.467-1.743.227-3.564-.675-5.128s-2.36-2.681-4.104-3.148zm2.847 7.76a4.725 4.725 0 0 1-2.217 2.888 4.763 4.763 0 0 1-6.5-1.741c-.635-1.1-.804-2.384-.475-3.611s1.116-2.253 2.217-2.889a4.725 4.725 0 0 1 3.61-.476 4.724 4.724 0 0 1 2.89 2.217c.635 1.1.804 2.383.475 3.612zm11.947 1.69c-3.726 0-6.757 3.032-6.757 6.759s3.03 6.758 6.757 6.758 6.76-3.032 6.76-6.758-3.033-6.759-6.76-6.759zm0 11.517a4.764 4.764 0 0 1-4.757-4.758 4.764 4.764 0 0 1 4.757-4.759 4.764 4.764 0 0 1 4.76 4.759 4.764 4.764 0 0 1-4.76 4.758zM69.81 53.919a6.712 6.712 0 0 0-5.127-.675c-1.744.467-3.202 1.585-4.104 3.149s-1.142 3.384-.676 5.128a6.716 6.716 0 0 0 3.15 4.104 6.725 6.725 0 0 0 5.128.675 6.711 6.711 0 0 0 4.104-3.149 6.767 6.767 0 0 0-2.474-9.232zm.743 8.232a4.725 4.725 0 0 1-2.889 2.217 4.733 4.733 0 0 1-3.611-.475 4.726 4.726 0 0 1-2.218-2.89c-.328-1.228-.16-2.51.477-3.61s1.66-1.888 2.888-2.217a4.725 4.725 0 0 1 3.61.476c1.102.634 1.89 1.66 2.218 2.888s.16 2.51-.475 3.611zm-7.388-27.4a6.717 6.717 0 0 0-3.15 4.103 6.716 6.716 0 0 0 .675 5.128 6.764 6.764 0 0 0 9.233 2.475 6.717 6.717 0 0 0 3.15-4.103 6.718 6.718 0 0 0-.676-5.13 6.715 6.715 0 0 0-4.104-3.149 6.707 6.707 0 0 0-5.128.676zm7.5 3.474c.636 1.1.805 2.382.476 3.61a4.726 4.726 0 0 1-2.218 2.89 4.763 4.763 0 0 1-6.5-1.743c-.636-1.1-.805-2.382-.476-3.61s1.117-2.254 2.218-2.889a4.727 4.727 0 0 1 3.61-.476 4.731 4.731 0 0 1 2.89 2.218z"/>
    <path xmlns="http://www.w3.org/2000/svg" d="M50 10c-22.056 0-40 17.944-40 40 0 17.703 11.565 32.748 27.533 38H11a1 1 0 1 0 0 2h38.033c.039 0 .071-.018.108-.022.287.006.571.022.859.022 22.056 0 40-17.944 40-40S72.056 10 50 10zm0 78c-20.953 0-38-17.047-38-38s17.047-38 38-38 38 17.047 38 38-17.047 38-38 38z"/>
    <path xmlns="http://www.w3.org/2000/svg" d="M49.888 55.94a5.856 5.856 0 0 0 5.85-5.85c0-3.225-2.625-5.849-5.85-5.849s-5.85 2.624-5.85 5.85a5.856 5.856 0 0 0 5.85 5.848zm0-9.699a3.854 3.854 0 0 1 3.85 3.85c0 2.122-1.727 3.848-3.85 3.848s-3.85-1.726-3.85-3.848a3.854 3.854 0 0 1 3.85-3.85z"/>
  </g>
</svg>